<?xml version="1.0" standalone="no"?>
<!DOCTYPE svg PUBLIC "-//W3C//DTD SVG 20010904//EN"
 "http://www.w3.org/TR/2001/REC-SVG-20010904/DTD/svg10.dtd">
<svg version="1.0" xmlns="http://www.w3.org/2000/svg"
 width="627.000000pt" height="627.000000pt" viewBox="0 0 627.000000 627.000000"
 preserveAspectRatio="xMidYMid meet">
<metadata>
Created by potrace 1.14, written by Peter Selinger 2001-2017
</metadata>
<g transform="translate(0.000000,627.000000) scale(0.100000,-0.100000)"
fill="#00ffff" stroke="none">
<path d="M1658 5788 c-8 -13 -75 -129 -147 -258 -73 -129 -150 -264 -171 -300
-30 -50 -250 -437 -390 -685 -9 -16 -63 -111 -120 -210 -57 -99 -116 -205
-133 -235 -17 -30 -50 -88 -74 -128 -24 -41 -43 -75 -43 -77 0 -1 -36 -64 -80
-140 -44 -76 -80 -139 -80 -140 0 -2 -59 -106 -131 -231 -118 -208 -129 -231
-119 -253 6 -14 38 -72 71 -128 32 -57 59 -106 59 -109 0 -3 8 -18 18 -32 11
-15 32 -52 49 -82 16 -30 69 -125 118 -210 48 -85 97 -171 108 -190 11 -19 77
-136 147 -260 70 -124 138 -243 150 -265 12 -21 50 -89 85 -150 34 -60 122
-216 195 -345 73 -129 151 -266 174 -305 22 -38 50 -88 62 -110 11 -22 33 -60
47 -85 14 -25 67 -118 118 -207 57 -102 98 -163 108 -164 9 -1 689 -2 1512 -2
l1497 -2 73 129 c41 71 85 149 99 175 14 25 33 57 41 71 9 14 48 81 86 150 39
69 181 319 315 555 135 237 256 450 270 475 14 25 61 108 105 185 222 386 496
870 509 898 l15 32 -139 245 c-76 135 -302 533 -502 885 -200 352 -376 662
-392 688 -15 26 -28 50 -28 53 0 2 -10 21 -23 42 -13 20 -37 62 -54 92 -17 30
-47 84 -68 120 -20 36 -50 88 -65 115 -15 28 -70 124 -122 215 -52 91 -97 173
-101 183 -6 16 -88 17 -1521 17 l-1514 0 -14 -22z m2746 -120 c-2 -3 -34 -16
-72 -28 -37 -12 -247 -80 -467 -151 -220 -72 -463 -151 -540 -176 -77 -25
-158 -51 -180 -58 -22 -8 -236 -78 -475 -155 -239 -78 -455 -148 -479 -156
-25 -8 -48 -11 -51 -7 -4 5 -66 136 -138 293 -72 157 -147 319 -166 361 -20
42 -36 78 -36 80 0 2 587 4 1304 4 717 0 1302 -3 1300 -7z m213 -100 c1 -15
14 -90 42 -238 10 -58 22 -125 26 -150 3 -25 8 -52 10 -60 2 -8 7 -31 10 -50
3 -19 14 -82 25 -140 11 -58 22 -121 25 -140 12 -75 36 -207 45 -250 6 -25 12
-61 15 -80 3 -19 11 -62 17 -95 6 -33 12 -69 13 -80 3 -20 41 -227 50 -275 3
-14 7 -41 11 -60 3 -19 9 -55 14 -80 5 -25 12 -61 15 -80 2 -19 7 -46 9 -60 3
-14 14 -77 26 -140 11 -63 22 -126 25 -140 3 -14 7 -36 10 -50 55 -314 52
-287 24 -268 -39 25 -1122 690 -1144 702 -11 6 -22 13 -25 16 -3 3 -52 34
-110 69 -233 142 -338 206 -619 380 -161 99 -297 181 -302 181 -5 0 -9 5 -9
10 0 6 -4 10 -9 10 -8 0 -350 207 -484 294 l-49 31 189 62 c165 54 433 141
1228 400 404 131 623 203 755 247 147 48 166 52 167 34z m-2887 -70 c19 -40
51 -111 73 -158 125 -268 217 -472 217 -478 0 -6 -114 -118 -354 -346 -23 -21
-129 -123 -236 -226 -107 -103 -217 -209 -245 -235 -64 -62 -381 -364 -611
-585 -178 -170 -172 -166 -131 -95 19 33 94 166 167 295 134 235 326 574 608
1070 82 146 164 290 181 320 144 256 207 367 246 433 14 23 28 50 31 60 11 29
20 20 54 -55z m3113 -230 c19 -35 47 -85 63 -113 15 -27 91 -162 169 -300 78
-137 251 -443 385 -680 133 -236 252 -448 265 -470 198 -347 265 -469 258
-476 -7 -7 -232 -60 -318 -75 -16 -3 -48 -10 -70 -16 -22 -6 -51 -12 -65 -14
-14 -3 -92 -19 -172 -38 l-147 -33 -10 46 c-6 25 -15 73 -21 106 -5 33 -12 70
-14 81 -2 12 -7 37 -10 55 -3 19 -13 72 -21 119 -9 47 -18 101 -21 120 -2 19
-9 58 -14 86 -6 28 -13 61 -15 75 -2 13 -18 101 -35 194 -35 195 -31 175 -65
365 -14 80 -27 156 -30 170 -3 14 -7 39 -10 55 -3 17 -7 41 -10 55 -3 14 -7
41 -11 60 -3 19 -10 60 -15 90 -6 30 -12 69 -15 85 -3 17 -14 77 -24 135 -22
120 -25 137 -49 278 -10 56 -17 102 -15 102 1 0 18 -28 37 -62z m-1908 -1013
c275 -169 628 -386 785 -483 157 -96 351 -216 433 -266 81 -50 155 -95 165
-101 43 -25 659 -405 675 -417 19 -14 52 6 -508 -311 -115 -65 -228 -129 -250
-142 -22 -12 -105 -60 -185 -105 -80 -45 -309 -176 -510 -290 -201 -114 -581
-330 -845 -480 -264 -150 -486 -277 -493 -283 -7 -5 -15 -7 -19 -4 -4 5 -8
3265 -4 3334 1 7 58 -23 129 -66 70 -43 352 -217 627 -386z m-897 -1200 c0
-894 -2 -1625 -5 -1625 -3 0 -13 9 -23 19 -9 11 -109 116 -222 233 -113 117
-234 242 -268 278 -34 36 -157 163 -274 284 -116 120 -237 246 -269 280 -33
33 -144 149 -247 256 -277 287 -320 332 -320 335 0 4 -16 -12 250 245 123 118
240 231 260 250 65 63 461 444 519 499 31 29 155 149 276 266 207 199 318 305
322 305 0 0 1 -731 1 -1625z m3966 23 c-4 -7 -15 -24 -25 -38 -14 -20 -177
-309 -269 -475 -12 -22 -39 -69 -60 -105 -21 -36 -54 -96 -75 -135 -21 -38
-46 -82 -57 -97 -10 -14 -18 -29 -18 -32 0 -4 -10 -23 -23 -44 -13 -20 -37
-62 -54 -92 -40 -72 -240 -426 -288 -510 -49 -84 -49 -85 -242 -427 -91 -161
-167 -293 -169 -293 -8 0 -3 19 92 420 18 80 43 183 53 230 11 47 41 173 66
280 26 107 48 202 50 210 9 42 90 391 135 580 28 118 58 247 67 285 8 39 20
75 27 81 6 6 79 25 161 42 122 25 345 74 450 98 11 2 34 7 50 10 17 4 46 10
65 14 56 12 72 12 64 -2z m-990 -385 c-19 -75 -40 -167 -48 -203 -12 -58 -135
-584 -171 -735 -8 -33 -35 -148 -60 -255 -25 -107 -64 -274 -86 -370 -23 -96
-42 -182 -44 -190 -2 -8 -8 -35 -15 -60 -7 -25 -14 -56 -17 -70 -14 -80 -23
-100 -46 -95 -12 3 -231 57 -487 121 -256 64 -472 117 -480 119 -8 2 -35 8
-60 15 -25 7 -53 14 -63 15 -9 2 -45 11 -80 20 -34 9 -71 18 -82 21 -11 2 -29
6 -40 9 -11 2 -157 38 -325 80 -168 43 -309 78 -315 79 -67 14 -285 72 -285
76 0 3 154 94 343 202 385 220 1158 661 1227 700 25 14 268 152 540 308 536
306 612 349 621 350 3 0 -9 -62 -27 -137z m-4119 -288 c110 -114 226 -235 259
-269 32 -33 156 -162 275 -285 119 -123 241 -249 271 -281 30 -31 114 -118
187 -193 l131 -136 -139 -233 c-76 -127 -139 -234 -139 -237 0 -12 -49 -66
-50 -55 0 7 -51 101 -113 210 -63 110 -125 219 -139 244 -14 25 -65 115 -113
200 -48 85 -98 173 -110 195 -13 22 -97 171 -187 330 -91 160 -178 315 -195
345 -17 30 -83 147 -147 259 -64 111 -116 205 -116 207 0 3 -12 23 -26 47 -28
45 -48 65 351 -348z m1618 -1326 c199 -50 369 -92 377 -94 8 -2 105 -27 215
-55 110 -28 207 -53 215 -55 8 -2 205 -51 437 -110 482 -121 459 -115 496
-122 15 -3 29 -8 31 -12 2 -3 -551 -6 -1230 -6 -679 0 -1234 4 -1234 8 0 4 64
112 142 240 77 128 146 241 152 252 18 32 27 45 32 45 2 0 167 -41 367 -91z"/>
</g>
</svg>
